<svg xmlns="http://www.w3.org/2000/svg" viewBox="0 0 471.08 360.95"><defs><style>.cls-1{fill:#dadfea;}.cls-2{fill:#f1f9fc;}.cls-12,.cls-3{fill:#4c3e71;}.cls-4{fill:#fff;}.cls-5{fill:#abe271;}.cls-6{fill:#53b1a9;}.cls-7{fill:#00416a;}.cls-8{fill:#a4dae7;}.cls-9{fill:#b1bedd;}.cls-10{fill:#c9d2ec;}.cls-11{fill:#b4dddc;}.cls-12{fill-rule:evenodd;}.cls-13{fill:#cbf995;}</style></defs><g id="objects"><rect class="cls-1" x="177.92" y="15.55" width="230.66" height="146.77"/><rect class="cls-2" x="177.92" y="162.32" width="230.66" height="34.77"/><path class="cls-3" d="M376.07,65.68a17.57,17.57,0,1,1,17.58-17.57A17.59,17.59,0,0,1,376.07,65.68Zm0-33.49A15.92,15.92,0,1,0,392,48.11,15.94,15.94,0,0,0,376.07,32.19Z"/><circle class="cls-4" cx="376.07" cy="48.11" r="14.65"/><path class="cls-4" d="M368.61,74.44a2.74,2.74,0,0,1-3.77,0,3.44,3.44,0,0,1,0-4.16,2.74,2.74,0,0,1,3.77,0,3.44,3.44,0,0,1,0,4.16ZM368,72.36c0-1.18-.42-1.78-1.26-1.78s-1.27.6-1.27,1.78.42,1.77,1.27,1.77S368,73.54,368,72.36Z"/><path class="cls-4" d="M370.47,75.12a.42.42,0,0,1-.3-.13.41.41,0,0,1-.13-.3V71.62a.44.44,0,0,1,.43-.43h.31a.41.41,0,0,1,.3.12.46.46,0,0,1,.13.31v.06h0v0a1.53,1.53,0,0,1,1.18-.56,1.17,1.17,0,0,1,1,.39,2.22,2.22,0,0,1,.31,1.33v1.86a.45.45,0,0,1-.13.3.42.42,0,0,1-.3.13H373a.42.42,0,0,1-.3-.13.41.41,0,0,1-.13-.3V72.87a1.18,1.18,0,0,0-.12-.63.52.52,0,0,0-.44-.17.67.67,0,0,0-.49.22.63.63,0,0,0-.22.46v1.94a.45.45,0,0,1-.42.43Z"/><path class="cls-4" d="M375.29,75.12a.44.44,0,0,1-.43-.43V69.88a.42.42,0,0,1,.13-.3.41.41,0,0,1,.3-.13h.43a.41.41,0,0,1,.3.13.38.38,0,0,1,.13.3v4.81a.41.41,0,0,1-.13.3.45.45,0,0,1-.3.13Z"/><path class="cls-4" d="M377.8,70.43a.41.41,0,0,1-.3-.13.42.42,0,0,1-.13-.3v-.12a.42.42,0,0,1,.13-.3.41.41,0,0,1,.3-.13h.43a.41.41,0,0,1,.3.13.42.42,0,0,1,.13.3V70a.42.42,0,0,1-.13.3.41.41,0,0,1-.3.13Zm0,4.69a.44.44,0,0,1-.43-.43V71.62a.42.42,0,0,1,.13-.3.41.41,0,0,1,.3-.13h.43a.41.41,0,0,1,.3.13.42.42,0,0,1,.13.3v3.07a.44.44,0,0,1-.43.43Z"/><path class="cls-4" d="M380.27,75.12A.42.42,0,0,1,380,75a.45.45,0,0,1-.13-.3V71.62a.42.42,0,0,1,.13-.3.38.38,0,0,1,.3-.13h.31a.41.41,0,0,1,.3.12.47.47,0,0,1,.14.31v.06h0l0,0a1.51,1.51,0,0,1,1.17-.56,1.17,1.17,0,0,1,1,.39,2.15,2.15,0,0,1,.31,1.33v1.86a.41.41,0,0,1-.13.3.42.42,0,0,1-.3.13h-.33a.42.42,0,0,1-.3-.13.41.41,0,0,1-.13-.3V72.87a1.18,1.18,0,0,0-.12-.63.52.52,0,0,0-.44-.17.69.69,0,0,0-.49.22.67.67,0,0,0-.22.46v1.94a.44.44,0,0,1-.12.3.45.45,0,0,1-.3.13Z"/><path class="cls-4" d="M386.35,75.19a2.21,2.21,0,0,1-1.58-.52,2,2,0,0,1-.56-1.52,2.12,2.12,0,0,1,.5-1.51,1.86,1.86,0,0,1,1.43-.53c1.2,0,1.81.66,1.83,2a.39.39,0,0,1-.14.3.45.45,0,0,1-.32.13h-2c-.05,0-.07,0-.06.07a.84.84,0,0,0,.32.59,1.36,1.36,0,0,0,.78.18,3.27,3.27,0,0,0,.73-.1.31.31,0,0,1,.29.06.31.31,0,0,1,.12.26h0a.58.58,0,0,1-.11.34.45.45,0,0,1-.3.19A5.5,5.5,0,0,1,386.35,75.19Zm-.19-3.25a.66.66,0,0,0-.51.17,1,1,0,0,0-.22.61s0,.06.05.06h1.28a.06.06,0,0,0,.07-.07C386.81,72.2,386.58,71.94,386.16,71.94Z"/><path class="cls-4" d="M362.49,85.48a.44.44,0,0,1-.43-.43V80.32a.44.44,0,0,1,.43-.44h.31a.46.46,0,0,1,.31.13.42.42,0,0,1,.13.31v.06h0a1.51,1.51,0,0,1,1.17-.56,1.36,1.36,0,0,1,1.12.53,2.88,2.88,0,0,1,0,3,1.36,1.36,0,0,1-1.11.54,1.58,1.58,0,0,1-1.12-.46,0,0,0,0,0,0,0s0,0,0,0v1.62a.44.44,0,0,1-.43.43Zm.77-4.1v.94a.61.61,0,0,0,.23.46.79.79,0,0,0,.52.2.63.63,0,0,0,.55-.28,1.42,1.42,0,0,0,.21-.85c0-.76-.25-1.13-.76-1.13a.79.79,0,0,0-.52.2A.59.59,0,0,0,363.26,81.38Z"/><path class="cls-4" d="M367.16,83.81a.4.4,0,0,1-.29-.12.42.42,0,0,1-.13-.31V80.32a.42.42,0,0,1,.13-.31.41.41,0,0,1,.29-.13h.37a.44.44,0,0,1,.43.44v.31s0,0,0,0,0,0,0,0a1.87,1.87,0,0,1,1.31-.73.33.33,0,0,1,.3.11.41.41,0,0,1,.12.31v.06a.44.44,0,0,1-.12.3.52.52,0,0,1-.31.14,1.55,1.55,0,0,0-.95.42,1.29,1.29,0,0,0-.33.91v1.23a.46.46,0,0,1-.13.31.41.41,0,0,1-.3.12Z"/><path class="cls-4" d="M373.58,83.35a2.24,2.24,0,0,1-2.92,0,2.42,2.42,0,0,1,0-3,2.24,2.24,0,0,1,2.92,0,2.42,2.42,0,0,1,0,3Zm-.9-2.41a.7.7,0,0,0-1.12,0,2.27,2.27,0,0,0,0,1.82.7.7,0,0,0,1.12,0,2.27,2.27,0,0,0,0-1.82Z"/><path class="cls-4" d="M376.66,83.89a2,2,0,0,1-1.49-.51,2.07,2.07,0,0,1-.52-1.53,2.11,2.11,0,0,1,.5-1.52,1.88,1.88,0,0,1,1.44-.52,5.86,5.86,0,0,1,.82.07.46.46,0,0,1,.31.17.47.47,0,0,1,.11.33v.07a.32.32,0,0,1-.12.26.39.39,0,0,1-.29.07,3.39,3.39,0,0,0-.64-.06.76.76,0,0,0-.64.27,1.41,1.41,0,0,0-.21.86,1.36,1.36,0,0,0,.22.87.88.88,0,0,0,.7.26,3.1,3.1,0,0,0,.64-.06.29.29,0,0,1,.28.06.31.31,0,0,1,.13.25v.08a.51.51,0,0,1-.13.33.47.47,0,0,1-.3.18A4.59,4.59,0,0,1,376.66,83.89Z"/><path class="cls-4" d="M379.1,80.89a.45.45,0,0,1-.31-.12.44.44,0,0,1-.12-.3.41.41,0,0,1,.43-.43h.3s.06,0,.06-.07V79a.39.39,0,0,1,.13-.3.38.38,0,0,1,.3-.13h.36a.38.38,0,0,1,.3.13.39.39,0,0,1,.13.3V80a.07.07,0,0,0,.07.07h.74a.41.41,0,0,1,.3.12.42.42,0,0,1,0,.61.41.41,0,0,1-.3.12h-.74a.06.06,0,0,0-.07.07v1.29a1.21,1.21,0,0,0,.09.6c.06.09.19.13.39.13h.25a.37.37,0,0,1,.29.07.32.32,0,0,1,.13.26v.06a.48.48,0,0,1-.12.33.46.46,0,0,1-.31.17,4.27,4.27,0,0,1-.54,0,1.46,1.46,0,0,1-1.09-.33,1.7,1.7,0,0,1-.31-1.18V81s0-.07-.06-.07Z"/><path class="cls-4" d="M386,83.35a2.24,2.24,0,0,1-2.92,0,2.42,2.42,0,0,1,0-3,2.24,2.24,0,0,1,2.92,0,2.42,2.42,0,0,1,0,3Zm-.9-2.41a.7.7,0,0,0-1.12,0,2.27,2.27,0,0,0,0,1.82.7.7,0,0,0,1.12,0,2.27,2.27,0,0,0,0-1.82Z"/><path class="cls-4" d="M387.69,83.81a.41.41,0,0,1-.3-.12.46.46,0,0,1-.13-.31V80.32a.46.46,0,0,1,.13-.31.42.42,0,0,1,.3-.13h.37a.45.45,0,0,1,.3.13.45.45,0,0,1,.12.31v.31s0,0,0,0,0,0,0,0a1.89,1.89,0,0,1,1.31-.73.31.31,0,0,1,.3.11.41.41,0,0,1,.12.31v.06a.44.44,0,0,1-.12.3.47.47,0,0,1-.31.14,1.52,1.52,0,0,0-.94.42,1.25,1.25,0,0,0-.34.91v1.23a.42.42,0,0,1-.13.31.4.4,0,0,1-.29.12Z"/><path class="cls-3" d="M304,85.78c1.29-.68,2.68-1.47,4.15-1.27a8.33,8.33,0,0,1,3.34,1.81,14.33,14.33,0,0,0,14.81.55,12,12,0,0,0,5.84-12.58,14.81,14.81,0,0,0,6.36-.08c2-.65,3.76-2.52,3.36-4.46a5.46,5.46,0,0,0-1.45-2.42c-4.67-5.24-10.42-11.25-10.57-18,0,0-3.93-40.14-37.33-38.8l-5.6,0c-33.41,1-34.47,41.37-34.47,41.37.34,6.78-5,13.18-9.25,18.74a5.44,5.44,0,0,0-1.27,2.52c-.26,2,1.6,3.71,3.67,4.21a14.69,14.69,0,0,0,6.34-.38,12,12,0,0,0,6.73,12.14,14.34,14.34,0,0,0,14.73-1.61,8.15,8.15,0,0,1,3.2-2c1.46-.31,2.9.37,4.24,1a28.67,28.67,0,0,0,11.08,2.3A28.26,28.26,0,0,0,304,85.78Z"/><path class="cls-3" d="M236.22,101.57c.58-3,1.35-5.91,2.18-8.82s1.76-5.79,2.89-8.62a.58.58,0,0,1,1.1.33c-.57,3-1.37,5.9-2.23,8.81s-1.8,5.78-2.93,8.6a.52.52,0,0,1-.68.29A.54.54,0,0,1,236.22,101.57Z"/><path class="cls-5" d="M235.54,133.16c-.25-15.52,2-32.36,12.76-43.49,5.13-5.28,11.71-8.7,18.35-11.93,1.49-.72,7.29-1.37,8.94-1.45,7.32-.34,25-.91,38.46,1.53,27.09,4.91,36.52,37.07,37.5,42.46l3.84,20.93c1.63,8.89,3.09,18.72-1.64,26.41-5.08,8.26-19.36,4.9-28.66,2.14a159.36,159.36,0,0,1-37-16.32H235.53Z"/><path class="cls-4" d="M315.24,78.3a38.57,38.57,0,0,1-24.76,9.33c-9,.07-16.94-4.09-23.83-9.89,0,0,8.79-3.35,23.26-2.48C311.83,76.57,315.24,78.3,315.24,78.3Z"/><path class="cls-4" d="M225.46,102.64a6.07,6.07,0,0,1-1.19-3.32A3.13,3.13,0,0,1,226,96.41c1.28-.54,2.73.07,4,.67l6.39,3.07a6.67,6.67,0,0,1,2.31,1.55,2.26,2.26,0,0,1,.34,2.59,3.07,3.07,0,0,1-2.46,1c-4,.26-7.88-.29-11.09-2.69"/><polygon class="cls-6" points="196.12 102.82 254.07 102.82 298.91 162.49 240.06 162.49 196.12 102.82"/><path class="cls-4" d="M293.3,135.86c-2,0-4.47-2.39-5.94-3.89a16,16,0,0,0-14.19-4.13l4.19,5.57c-3.92-.64-8.14-.66-12.07-1.3a3.19,3.19,0,0,0-2.88.46,2.42,2.42,0,0,0-.23,2.71,5.4,5.4,0,0,0,2,2,20.58,20.58,0,0,0,7,3,44.6,44.6,0,0,0-7.39-1.41.9.9,0,0,0-.82,1.37c1.11,1.7,6,2.87,8.64,3.29l-6.38-.28a1,1,0,0,0-.7,1.73c1.35,1.38,5.4,2.16,7.62,2.5l-2.94.36c-.18,1,1,1.61,1.87,1.85a41.86,41.86,0,0,0,18.66.57Z"/><path class="cls-5" d="M326.53,122l1.93,19.87c-11.92-3.22-23.75-7.33-35.32-11.64-.8,6-4.21,17.21-5,23.18l17.69,9.22"/><path class="cls-6" d="M326.53,122c.48,3.3.89,6.6,1.32,9.9s.82,6.6,1.23,9.91a.62.62,0,0,1-.54.68.81.81,0,0,1-.22,0h0q-4.52-1.14-9-2.43t-8.9-2.75c-2.95-1-5.89-2-8.82-3s-5.83-2.12-8.74-3.21l1.2-.72c-.6,4-1.64,7.82-2.61,11.66L290,147.78c-.47,1.91-.92,3.83-1.22,5.75l-.34-.64c2.91,1.61,5.84,3.19,8.73,4.84s5.8,3.25,8.67,4.93c-3-1.39-6-2.85-9-4.29s-6-2.91-9-4.37a.61.61,0,0,1-.34-.62v0c.25-2,.64-4,1.05-5.9s.85-3.88,1.3-5.8.9-3.85,1.32-5.77.83-3.85,1.09-5.75a.89.89,0,0,1,1-.77l.18,0h0l8.72,3.17c2.91,1,5.83,2.08,8.76,3.07s5.86,2,8.81,2.92,5.9,1.86,8.87,2.71l-.78.67c-.24-3.32-.51-6.64-.71-10S326.69,125.36,326.53,122Z"/><polygon class="cls-4" points="297.91 67.43 301.37 78.27 280.31 78.27 283.99 67.43 297.91 67.43"/><path class="cls-4" d="M322.6,49.63a4.69,4.69,0,0,0,4.77,1.44,6.47,6.47,0,0,0,2.84-2.45c2-2.71,3.19-6.2,2.29-9.43a4.06,4.06,0,0,0-1.24-2.12,3.67,3.67,0,0,0-3.91-.16,17.54,17.54,0,0,0-4,3.65"/><path class="cls-7" d="M329.68,40.08a13,13,0,0,0-3.45,2.64,13.13,13.13,0,0,0-2.38,3.62.27.27,0,0,1-.51-.18,9.14,9.14,0,0,1,2.26-4,9.28,9.28,0,0,1,3.89-2.5.25.25,0,0,1,.31.16A.24.24,0,0,1,329.68,40.08Z"/><path class="cls-7" d="M325.75,42.8a6,6,0,0,1,1.59,5.87.27.27,0,0,1-.34.18.26.26,0,0,1-.19-.26,10,10,0,0,0-.31-2.85,9.51,9.51,0,0,0-1.13-2.63.25.25,0,0,1,.38-.31Z"/><path class="cls-4" d="M257.81,40a14.19,14.19,0,0,0-3.55-3.33,3.67,3.67,0,0,0-3.92.17,4,4,0,0,0-1.23,2.11c-.9,3.23.32,6.73,2.29,9.43a6.49,6.49,0,0,0,2.84,2.46,5.17,5.17,0,0,0,5-1.5"/><path class="cls-7" d="M252.13,39.35a9.26,9.26,0,0,1,3.9,2.5,9.83,9.83,0,0,1,1.39,1.88,8.15,8.15,0,0,1,.87,2.17.29.29,0,0,1-.22.35.3.3,0,0,1-.33-.16,14.09,14.09,0,0,0-1.05-1.91,12.22,12.22,0,0,0-1.34-1.7,13.09,13.09,0,0,0-3.43-2.64.27.27,0,0,1-.11-.36A.29.29,0,0,1,252.13,39.35Z"/><path class="cls-7" d="M256.25,42.87a9.7,9.7,0,0,0-1.11,2.62,8.41,8.41,0,0,0-.26,1.4,13.56,13.56,0,0,0-.06,1.43.29.29,0,0,1-.29.3.28.28,0,0,1-.28-.2,5.25,5.25,0,0,1-.23-1.58,7,7,0,0,1,.22-1.58,5.87,5.87,0,0,1,1.6-2.73.27.27,0,0,1,.41.34Z"/><path class="cls-4" d="M323.69,41.08c0,18.74-14.75,32.23-32.94,32.23s-32.94-13.49-32.94-32.23S272.55,7.14,290.75,7.14,323.69,22.34,323.69,41.08Z"/><path class="cls-3" d="M289.61,6.67h0a3.21,3.21,0,0,0-2-2.3,9.32,9.32,0,0,0-2.41-.44c-7.39-.53-15.18.84-21.3,5-10.29,7-10.62,25.83-10.21,27.23.6,2,3.82,4.32,5.6,5.48,4.44-8.81,13.87-20,22-22.91,5.4-2,8.63-6.33,8.36-12.07"/><path class="cls-7" d="M294,59.92a4.16,4.16,0,0,1-4.5.86,3.47,3.47,0,0,1-1.31-.92.32.32,0,0,1,0-.45.34.34,0,0,1,.37,0h0a5.46,5.46,0,0,0,1.22.52,5.58,5.58,0,0,0,1.28.19,5,5,0,0,0,2.54-.62h0a.29.29,0,0,1,.4.11A.29.29,0,0,1,294,59.92Z"/><path class="cls-7" d="M291,45.68a15.48,15.48,0,0,1,.49,2.36c.13.78.23,1.56.34,2.33l.17,1.15c.05.36.16.7.23,1.13a2.69,2.69,0,0,1-.05,1.4,1.21,1.21,0,0,1-.54.66,1.57,1.57,0,0,1-.73.18.32.32,0,0,1-.33-.3.33.33,0,0,1,.2-.31l.06,0a1.22,1.22,0,0,0,.38-.19.62.62,0,0,0,.14-.28,2.31,2.31,0,0,0-.09-.94,10,10,0,0,1-.27-1.16c-.07-.41-.12-.8-.16-1.2-.09-.79-.16-1.57-.21-2.36s-.1-1.57-.19-2.31v0a.29.29,0,0,1,.57-.12Z"/><path class="cls-8" d="M291.28,75.92a18.24,18.24,0,0,1-4.42-.45.35.35,0,0,1-.16-.08,12.06,12.06,0,0,1-1.42-.41.47.47,0,0,1-.29-.57.49.49,0,0,1,.3-.31,7.34,7.34,0,0,1-.89-.33.47.47,0,0,1-.25-.58.46.46,0,0,1,.55-.3,27.35,27.35,0,0,0,12.11.23.46.46,0,0,1,.51.24l.26-.06a.47.47,0,0,1,.21.92l-.09,0a.47.47,0,0,1,0,.17.46.46,0,0,1-.41.49l-1.48.18a.46.46,0,0,1-.34.41A17.38,17.38,0,0,1,291.28,75.92Z"/><path class="cls-7" d="M308.58,51.1c2.54,0,2.55-4,0-4s-2.55,4,0,4Z"/><path class="cls-7" d="M273.8,49.26v-.13a2,2,0,0,0-3.95,0v.13c0,2.54,3.95,2.55,3.95,0v-.13a2,2,0,0,0-3.95,0v.13c0,2.54,3.95,2.55,3.95,0Z"/><path class="cls-3" d="M323.71,42.76a10.39,10.39,0,0,1-7.21-2.88c-3.81-3.61-6.75-8.09-9.65-12.52a30.84,30.84,0,0,1,3.21,9.47,5.41,5.41,0,0,1,0,1.75c-.57,3.49-4.22,3.5-6.77,2.45-6.64-2.72-10.64-9.63-14.14-16.09a11.48,11.48,0,0,1-.56,9.68c-.78,1.42-2,2.75-4.15,2a5.46,5.46,0,0,1-2.63-2.08c-3.86-5.51-6.53-14.32-4.5-21C279,8,279.2,5.32,288,1.44A18.89,18.89,0,0,1,293.83.08c7.74-.59,30.75,1.58,35.75,23.66C331.56,32.46,333.11,42.76,323.71,42.76Z"/><circle class="cls-3" cx="275.84" cy="180.26" r="9.84" transform="translate(36.75 407.02) rotate(-76.65)"/><path class="cls-4" d="M275.84,179.57a3.81,3.81,0,0,1,2.89,1,.83.83,0,0,1,.21.56v.83a.84.84,0,0,0,.83.84H282a.84.84,0,0,0,.83-.84v-1a.83.83,0,0,0-.15-.48c-.46-.64-2.13-2.34-6.87-2.34s-6.4,1.7-6.87,2.34a.82.82,0,0,0-.14.48v1a.84.84,0,0,0,.83.84h2.25a.85.85,0,0,0,.84-.84v-.81a.8.8,0,0,1,.22-.57A4.22,4.22,0,0,1,275.84,179.57Z"/><circle class="cls-3" cx="311.62" cy="180.26" r="9.84" transform="translate(69.14 446.35) rotate(-77.71)"/><polygon class="cls-4" points="314.8 178.72 314.8 176.05 306.07 176.05 306.07 184.47 314.8 184.47 314.8 182.55 317.16 184.47 317.16 176.05 314.8 178.72"/><path class="cls-4" d="M233.29,31H148.56a5.7,5.7,0,0,0-5.69,5.7V57.62a5.7,5.7,0,0,0,5.69,5.7h73.27a8.68,8.68,0,0,0,8.7,6.52,7.32,7.32,0,0,1,0-6.52h2.76a5.7,5.7,0,0,0,5.7-5.7V36.71A5.7,5.7,0,0,0,233.29,31Z"/><rect class="cls-3" x="152.61" y="40.01" width="76.63" height="1.27"/><rect class="cls-3" x="152.61" y="43.67" width="76.63" height="1.27"/><rect class="cls-3" x="152.61" y="47.46" width="76.63" height="1.27"/><rect class="cls-3" x="152.61" y="51.94" width="38.32" height="1.27"/><path class="cls-4" d="M117.28,68.6H63.68a3.23,3.23,0,0,0-3.22,3.22V107a3.23,3.23,0,0,0,3.22,3.22h43c1.9,5.51,8.8,5.54,8.8,5.54a5.1,5.1,0,0,1,0-5.54h1.81A3.23,3.23,0,0,0,120.5,107V71.82A3.23,3.23,0,0,0,117.28,68.6Z"/><rect class="cls-3" x="68.03" y="84.53" width="46.15" height="1.2"/><rect class="cls-3" x="68.03" y="87.96" width="46.15" height="1.2"/><rect class="cls-3" x="68.03" y="91.52" width="46.15" height="1.2"/><rect class="cls-3" x="68.03" y="95.72" width="23.07" height="1.2"/><path class="cls-3" d="M202.21,193.67a7.11,7.11,0,0,1-1.75-1.71c-1.71-2.74,1.21-5.88,2.92-8.62,3.66-5.88,1-17.34-5.51-17.79h0l-.35,0c-3.84-.23-5.07-1.62-5.87-5-.57-2.44.05-5,0-7.48-.12-5.1-2.7-7.85-3.17-8.19a20.84,20.84,0,0,1-2.68-3.52,10.37,10.37,0,0,1-1.57-5.61s-8.83,9-11.86,2c-2.39-5.55-11.33-4.5-15.61-8.78-11.25-11.26-26.68-14.68-42.26-7.68-29.19,13.11-30.24,54.78-17,70.18,1.16,1.35,2.7,2.4,3.5,4,1.89,3.74-.68,8.06-1.43,12.19-1,5.41,1.51,11.14,5.73,14.67a21.73,21.73,0,0,0,15.43,4.58c4-.29,8.65-1.36,11.76,1.24,2.18,1.83,2.8,4.87,4,7.43,3.6,7.4,13,10.72,21.06,8.9s14.57-7.83,19-14.78c2.43-3.85,5-8.53,9.51-9.12,2.84-.38,5.57,1.06,8.4,1.46,6.55.94,13.05-4.29,14.49-10.74S207.34,197.85,202.21,193.67Z"/><path class="cls-4" d="M164.43,309.72a175.48,175.48,0,0,0,12.28-46.39c.94-7.65,1.49-15.55-1-22.85A71.16,71.16,0,0,0,188,239.22l7-2.27c4.38,11.94,1.91,26.87-1.17,39.21s-8.59,23.93-14.06,35.42Z"/><path class="cls-6" d="M165.15,200.38c9.89,2.37,19.8,7.73,24.59,16.71,4.32,8.11,4.32,8.11,7.18,19.69,0,0-9.77,8.57-21.6,7.37,0,0-3.67,21.84,1.08,61.82h-77c3.92-17.77.82-61,.82-61-14.9-1.85-20.37-11-20.37-11l1.38-4.29c7.21-24.28,27.25-30,36.18-30.65C117.43,199,151.67,197.15,165.15,200.38Z"/><polygon class="cls-9" points="134.44 353.87 99.72 323.66 99.72 315.95 239.9 315.95 279.62 353.87 134.44 353.87"/><polygon class="cls-10" points="135.17 346.2 99.72 315.95 99.72 323.66 134.44 353.87 135.17 346.2"/><path class="cls-4" d="M80.74,235.09c-4.27,16.25-18,65.3,12.7,75.11,10.32,3.29,20.8,6,31,9.62l2.06,1.28.64.4a30.23,30.23,0,0,0,5.75,2.59c2,.61,7.83.47,6.23-1.4a4.89,4.89,0,0,0-1.55-1.09,9.63,9.63,0,0,0,4.38.6,2.85,2.85,0,0,0,1.4-.44,1.23,1.23,0,0,0,.54-1.29,1.79,1.79,0,0,0-.87-.91,14.12,14.12,0,0,0-2.7-1.26,9.41,9.41,0,0,0,3.7-.24,1.49,1.49,0,0,0,1.11-.78c.28-.79-.71-1.41-1.52-1.66-1.18-.37-2.38-.71-3.59-1a7.23,7.23,0,0,0,1.47,0A2.6,2.6,0,0,0,143,314a1.16,1.16,0,0,0,.18-1.52,1.71,1.71,0,0,0-.84-.44l-7.67-2.42a7.52,7.52,0,0,0,3.48-1.9c.36-.42.6-1.08.23-1.48a1.35,1.35,0,0,0-1.23-.18l-8.82,1.55L126.7,307a109.49,109.49,0,0,1-26.31-16.09c-2.42-1.95-4.81-4.09-6.22-6.86.72-9.43,3.39-30.15,6.07-39.07a38.71,38.71,0,0,1-10.59-3A24.92,24.92,0,0,1,80.74,235.09Z"/><path class="cls-8" d="M85.27,306a38.43,38.43,0,0,0,7.66,3.85,82.78,82.78,0,0,0,8.06,3c5.46,1.71,11.06,3,16.59,4.5a.36.36,0,1,1-.19.69h0l.2-.69c2.35.66,4.7,1.37,7,2.18l.07,0,2,1.25a20.42,20.42,0,0,0,2,1.16A27.91,27.91,0,0,0,133,323.7a12.08,12.08,0,0,0,4.53.17,4.52,4.52,0,0,0,1-.28,1,1,0,0,0,.34-.21c.05-.08.05-.08,0-.16a1.79,1.79,0,0,0-.61-.69,8.1,8.1,0,0,0-1-.57.41.41,0,0,1-.18-.55.42.42,0,0,1,.51-.19,9.1,9.1,0,0,0,2.72.61,9.33,9.33,0,0,0,1.4,0,2.68,2.68,0,0,0,1.22-.33.9.9,0,0,0,.47-.83c0-.28-.35-.55-.76-.79a13.09,13.09,0,0,0-2.57-1.2.37.37,0,0,1-.23-.48.38.38,0,0,1,.4-.25,9.18,9.18,0,0,0,2.72,0,6,6,0,0,0,1.28-.34c.36-.16.51-.43.42-.69a1.64,1.64,0,0,0-.83-.73,9.93,9.93,0,0,0-1.3-.42l-2.72-.79h0a.33.33,0,0,1-.23-.41.34.34,0,0,1,.34-.24,7,7,0,0,0,1.65-.06,1.79,1.79,0,0,0,1.26-.66.73.73,0,0,0-.18-1.09,4.2,4.2,0,0,0-.75-.29l-.82-.26-6.57-2.13a.23.23,0,0,1-.15-.28.26.26,0,0,1,.15-.14,11,11,0,0,0,2.42-1,3.94,3.94,0,0,0,1-.81,1.32,1.32,0,0,0,.33-1.11v-.07s0,0,0,0h0s-.13-.15-.34-.17a3.12,3.12,0,0,0-.62-.05,11.22,11.22,0,0,0-1.29.11c-.86.13-1.72.31-2.58.5l-5.2.83,5.17-1c.84-.21,1.7-.42,2.57-.57a9.85,9.85,0,0,1,1.32-.14,3.19,3.19,0,0,1,.69,0,1,1,0,0,1,.36.12.4.4,0,0,1,.21.46v-.09a1.63,1.63,0,0,1-.37,1.38,3.87,3.87,0,0,1-1.06.92,10.37,10.37,0,0,1-2.5,1.11v-.42l6.61,2,.82.26a4.59,4.59,0,0,1,.87.31,1.22,1.22,0,0,1,.63.89,1.53,1.53,0,0,1-.22,1,2.4,2.4,0,0,1-1.67,1,7.21,7.21,0,0,1-1.79.1l.1-.65,2.75.76a9.43,9.43,0,0,1,1.4.45,2.24,2.24,0,0,1,1.22,1.14,1.19,1.19,0,0,1-.11,1,1.55,1.55,0,0,1-.69.59,5.91,5.91,0,0,1-1.46.4,10,10,0,0,1-2.94.07l.17-.73a14.54,14.54,0,0,1,2.72,1.25,3.56,3.56,0,0,1,.66.48,1.55,1.55,0,0,1,.47.85,1.7,1.7,0,0,1-.82,1.62,3.47,3.47,0,0,1-1.56.45,8.69,8.69,0,0,1-1.53,0,10.12,10.12,0,0,1-3-.64l.34-.75a8.14,8.14,0,0,1,1.08.65,2.4,2.4,0,0,1,.91,1.09,1,1,0,0,1-.18.94,1.93,1.93,0,0,1-.64.45,4.93,4.93,0,0,1-1.25.33,13.42,13.42,0,0,1-2.45.13,11.11,11.11,0,0,1-2.45-.34,31.08,31.08,0,0,1-4.44-1.87,20.49,20.49,0,0,1-2.08-1.21l-2-1.25.08,0c-2.29-.81-4.62-1.53-7-2.2a.36.36,0,0,1-.25-.44.37.37,0,0,1,.45-.25h0l-.19.69-8.29-2.29c-2.77-.76-5.53-1.56-8.26-2.46a71.78,71.78,0,0,1-8-3.16A36.31,36.31,0,0,1,85.27,306Z"/><path class="cls-4" d="M129.89,197.57c1.22-4.24,1.09-5.33,2.22-9.57h15.61c2.09,9.93,1.16,4.63,2.51,10.33,0,0,10.7.34,15,1.81,0,0,0,12.21-21.39,14-5.86.48-13.24.12-18.72-2s-10.21-6-11.13-12.7a58.91,58.91,0,0,1,8.41-1.12C128.32,197.78,129.89,197.57,129.89,197.57Z"/><path class="cls-11" d="M139.86,195.89a13.42,13.42,0,0,1-3-.27.37.37,0,0,1-.14-.07,8.91,8.91,0,0,1-1.21-.3.4.4,0,0,1,0-.75,5.69,5.69,0,0,1-.76-.26.37.37,0,0,1-.22-.48.39.39,0,0,1,.46-.27,23.09,23.09,0,0,0,10.23-.12.4.4,0,0,1,.44.19l.23-.05a.39.39,0,1,1,.19.76l-.07,0a.83.83,0,0,1,0,.15.4.4,0,0,1-.34.43l-1.24.18a.41.41,0,0,1-.28.36A16.37,16.37,0,0,1,139.86,195.89Z"/><path class="cls-4" d="M175.32,167.79a5.14,5.14,0,0,0,5.22,1.58,7.19,7.19,0,0,0,3.11-2.68c2.15-3,3.49-6.8,2.5-10.33A4.45,4.45,0,0,0,184.8,154a4,4,0,0,0-4.29-.17,19,19,0,0,0-4.35,4"/><path class="cls-7" d="M183.07,157.34a14.29,14.29,0,0,0-3.78,2.88,13.07,13.07,0,0,0-1.46,1.87,15.77,15.77,0,0,0-1.15,2.1.29.29,0,0,1-.39.15.3.3,0,0,1-.17-.34,9.36,9.36,0,0,1,1-2.37,11.22,11.22,0,0,1,1.52-2,10.23,10.23,0,0,1,4.26-2.74.27.27,0,0,1,.34.18A.28.28,0,0,1,183.07,157.34Z"/><path class="cls-7" d="M178.77,160.31a6.51,6.51,0,0,1,1.73,3,7.84,7.84,0,0,1,.24,1.74,5.59,5.59,0,0,1-.24,1.72.29.29,0,0,1-.37.19.3.3,0,0,1-.21-.29,11.86,11.86,0,0,0-.06-1.58,8.75,8.75,0,0,0-.27-1.53,10.77,10.77,0,0,0-1.24-2.88.28.28,0,0,1,.09-.38A.29.29,0,0,1,178.77,160.31Z"/><path class="cls-4" d="M104.37,157.22a15.7,15.7,0,0,0-3.89-3.63,4,4,0,0,0-4.28.17,4.5,4.5,0,0,0-1.36,2.32c-1,3.53.36,7.36,2.51,10.33a7.13,7.13,0,0,0,3.11,2.68,5.65,5.65,0,0,0,5.5-1.64"/><path class="cls-7" d="M98.15,156.54a10.14,10.14,0,0,1,4.28,2.73,11,11,0,0,1,1.52,2.06,9.4,9.4,0,0,1,1,2.38.32.32,0,0,1-.24.38.31.31,0,0,1-.36-.18,15.59,15.59,0,0,0-1.16-2.08,13.91,13.91,0,0,0-1.46-1.86,14.23,14.23,0,0,0-3.76-2.89.31.31,0,0,1-.12-.4A.3.3,0,0,1,98.15,156.54Z"/><path class="cls-7" d="M102.67,160.39a10.53,10.53,0,0,0-1.22,2.88,11.28,11.28,0,0,0-.28,1.52,13.64,13.64,0,0,0-.07,1.57h0a.32.32,0,0,1-.32.32.32.32,0,0,1-.31-.22,5.61,5.61,0,0,1-.24-1.73,6.4,6.4,0,0,1,.23-1.74,6.5,6.5,0,0,1,1.75-3,.31.31,0,0,1,.42,0A.32.32,0,0,1,102.67,160.39Z"/><path class="cls-4" d="M176.51,158.43c0,20.52-16.15,35.29-36.07,35.29S104.37,179,104.37,158.43s16.15-37.16,36.07-37.16S176.51,137.91,176.51,158.43Z"/><path class="cls-3" d="M144,179.06a4.32,4.32,0,0,1-3.2,1.29,4.48,4.48,0,0,1-1.73-.34,3.88,3.88,0,0,1-1.44-1,.35.35,0,0,1,0-.5.35.35,0,0,1,.4,0h0a6.2,6.2,0,0,0,1.33.57,6.08,6.08,0,0,0,1.41.21,5.63,5.63,0,0,0,2.78-.68h0a.32.32,0,0,1,.43.13A.32.32,0,0,1,144,179.06Z"/><path class="cls-3" d="M140.71,163.47a17.18,17.18,0,0,1,.54,2.58c.14.85.25,1.71.37,2.55l.18,1.26c0,.21.07.39.12.59s.1.43.14.66a3,3,0,0,1-.05,1.53,1.37,1.37,0,0,1-.59.71,1.63,1.63,0,0,1-.8.2.35.35,0,0,1-.14-.67l.06,0a1,1,0,0,0,.41-.21.59.59,0,0,0,.16-.3,2.61,2.61,0,0,0-.1-1c-.09-.37-.23-.82-.3-1.28s-.13-.87-.18-1.3c-.09-.87-.16-1.73-.22-2.58s-.11-1.73-.21-2.54v0a.32.32,0,0,1,.28-.35A.31.31,0,0,1,140.71,163.47Z"/><path class="cls-3" d="M139.18,119.59l-.29-.13c-1.11-1.24-2.9-1.59-4.56-1.71-8.09-.58-16.21,2.75-22.18,8.24s-9.88,13-11.85,20.87c-.38,1.55-1,4-.84,5.54.39,3,2.63,6.95,8.2,4.53,2.91-1.25,4.52-4.72,5.11-7.83a16.28,16.28,0,0,1,.51-2.61,6.62,6.62,0,0,1,1.46-2.1,9.34,9.34,0,0,1,3.61-2.52c2.61-.88,5.62.07,8.13-1.06a6.45,6.45,0,0,0,3.38-4.17,9,9,0,0,0,.29-2.73C135.79,131.22,139.48,125.83,139.18,119.59Z"/><path class="cls-3" d="M120.06,168.26c2.69,0,2.69-4.18,0-4.18s-2.7,4.18,0,4.18Z"/><path class="cls-3" d="M159.55,168.26c2.69,0,2.69-4.18,0-4.18s-2.7,4.18,0,4.18Z"/><polygon class="cls-10" points="291.62 259.02 143.44 259.02 134.44 353.87 279.62 353.87 291.62 259.02"/><path class="cls-3" d="M186.72,145c-.53-1.24-1.29-2.37-1.75-3.64-.87-2.4-.58-5.07-1-7.6-.93-5.84-6-10.66-11.6-10.94-4.17-.22-9.8,2.39-12.16-1.2-6.32-9.63-16.16-9.07-21-7.93,0,0-17.5,1.25-11.67,18.5a18.51,18.51,0,0,0,.69,1.74c0,.33,0,.65,0,1,.59,7.36,6.19,14.49,13.53,15.33,4.08.47,8.49-.89,12.19.9,2.31,1.13,3.9,3.3,5.73,5.11a18.64,18.64,0,0,0,12.67,5.68,13.83,13.83,0,0,0,10.47-4.59,8.85,8.85,0,0,0,2.54-2.19A10.38,10.38,0,0,0,186.72,145Z"/><path class="cls-4" d="M304.49,296.66a1.63,1.63,0,0,0-1.08-.52,2.21,2.21,0,0,0-1,.19l-1.51.64c-1,.44-1.95.92-2.9,1.42a47.9,47.9,0,0,0-5.35,3.26,53.49,53.49,0,0,0-4.61,3.61,46.9,46.9,0,0,0-3.75,3.66c-1.11,1.19-2,2.34-2.86,3.38s-1.48,2-2,2.78c-.13.19-.26.37-.37.55,0-1,.07-2,.13-3.1.14-2.11.35-4.38.63-6.79.09-.94.19-1.91.29-2.89.85-.38,1.7-.78,2.52-1.22,1.14-.59,2.27-1.21,3.38-1.85a70.69,70.69,0,0,0,6.4-4.29c2.05-1.55,4-3.17,5.95-4.91l1.4-1.3a9,9,0,0,0,1.36-1.56,3.69,3.69,0,0,0,.48-1,2.66,2.66,0,0,0,.12-.6c0-.12,0-.19,0-.27v-.06a.58.58,0,0,0,0-.1v-.16a3,3,0,0,0-1.17-2,4.09,4.09,0,0,0-2-.83,5,5,0,0,0-2.08.27,14,14,0,0,0-3.44,1.92,42.49,42.49,0,0,0-5.92,4.94c-.92.9-1.79,1.84-2.62,2.82s-1.61,2-2.35,3.05c-.5.71-1,1.45-1.42,2.19.52-4.26,1.09-8.74,1.75-13.24l1-.57c.67-.36,1.46-.82,2.37-1.35s1.94-1.12,3-1.8c2.22-1.33,4.77-3,7.49-4.72a24.47,24.47,0,0,0,4-3.16c.3-.32.62-.68.89-1a5.29,5.29,0,0,0,.74-1.24,4.5,4.5,0,0,0,.33-1.48,2.35,2.35,0,0,0-.53-1.61,2.12,2.12,0,0,0-1.55-.69,3.56,3.56,0,0,0-1.46.32,9.59,9.59,0,0,0-1.2.6c-.38.21-.77.41-1.13.63a36.47,36.47,0,0,0-4.19,2.82,42.42,42.42,0,0,0-3.56,3.08,36.28,36.28,0,0,0-2.86,3.1,33,33,0,0,0-2.14,2.85c-.32.47-.61.91-.87,1.33v0c.43-2.79.9-5.58,1.39-8.31q.36-2.08.75-4.11l.08.06h0l.15.28s.71-.3,1.93-.89c.61-.28,1.34-.66,2.18-1.1s1.78-.94,2.77-1.55,2.05-1.31,3.15-2.08,2.19-1.7,3.28-2.69a26.16,26.16,0,0,0,3.09-3.35c.49-.62.92-1.26,1.34-1.89a3.75,3.75,0,0,0,.56-1.27,1.84,1.84,0,0,0,0-.84,1.41,1.41,0,0,0-.22-.47.69.69,0,0,0-.1-.12,1.54,1.54,0,0,0-.2-.19,2,2,0,0,0-1.52-.31,6.67,6.67,0,0,0-1.21.28,10,10,0,0,0-2.17,1,25.29,25.29,0,0,0-3.56,2.8,62.78,62.78,0,0,0-5.53,5.68c-1.5,1.77-2.63,3.34-3.42,4.44l-.23.32c.14-.69.27-1.38.4-2.05.51-2.6,1.06-5.11,1.61-7.47.33-1.45.66-2.84,1-4.18h0c.3-.06.73-.17,1.27-.33a23.51,23.51,0,0,0,4.32-1.72,31,31,0,0,0,2.69-1.55c.92-.61,1.87-1.28,2.82-2s1.91-1.52,2.83-2.37a6.75,6.75,0,0,0,1.39-1.5,3.07,3.07,0,0,0,.43-1.11,1.68,1.68,0,0,0,0-.7,1.55,1.55,0,0,0-.32-.62,1.66,1.66,0,0,0-1.25-.6,2.81,2.81,0,0,0-1.13.25,4.82,4.82,0,0,0-.92.51l-.76.57c-1,.75-2,1.5-2.88,2.25-1.83,1.52-3.52,3-4.91,4.24s-2.39,2.32-3.17,3.09c.07-.3.15-.6.22-.89.55-2.21,1.06-4.2,1.53-5.95l.34-.23a10.69,10.69,0,0,0,1-.82,11.85,11.85,0,0,0,1.41-1.51,14.12,14.12,0,0,0,1.45-2.25,21.08,21.08,0,0,0,2-6.31,13.33,13.33,0,0,0,.26-3.8,4.06,4.06,0,0,0-2.45-3.42,2.74,2.74,0,0,0-2.26.19,3.77,3.77,0,0,0-1.46,1.51,7.42,7.42,0,0,0-.76,1.8c-.16.61-.29,1.2-.39,1.79a27.09,27.09,0,0,0-.41,6.49,28.15,28.15,0,0,0,.67,4.56c.09.35.16.64.22.89-.53,2-1.16,4.29-1.82,6.9a9.21,9.21,0,0,1-.34,1.06,62.49,62.49,0,0,1-3.65-6.78c-.53-1.29-1-2.57-1.6-3.86a11,11,0,0,0-1.05-1.89A5.22,5.22,0,0,0,280,238l-.51-.3-.24.58a5.32,5.32,0,0,0-.38,2.51,10.2,10.2,0,0,0,.52,2.37c.13.38.26.75.42,1.11s.3.7.47,1.06c.33.71.68,1.4,1.07,2.08a24.4,24.4,0,0,0,2.63,3.84,21.21,21.21,0,0,0,3.34,3.22s-.37,2.05-.64,3.23c-.55,2.37-1.12,4.87-1.72,7.46,0,.2-.08.41-.13.61-.09-.38-.19-.78-.3-1.23-.21-.82-.49-1.74-.84-2.73a35.43,35.43,0,0,0-3.09-6.47,32.21,32.21,0,0,0-2.31-3.34,13.65,13.65,0,0,0-1.41-1.63,3.08,3.08,0,0,0-1.08-.63,1.7,1.7,0,0,0-1.45.2,2,2,0,0,0-.78,1.23,3.88,3.88,0,0,0-.08,1.21,11,11,0,0,0,.35,2.15,19.69,19.69,0,0,0,1.51,3.84,37,37,0,0,0,3.74,6.18,30.57,30.57,0,0,0,3.38,3.82c.88.85,1.43,1.28,1.43,1.28l.11-.1c-.25,1.2-.5,2.4-.74,3.62-.56,2.73-1.08,5.52-1.58,8.31,0,.27-.09.55-.14.83-.43-1.32-1-3.15-1.9-5.27a69.24,69.24,0,0,0-3.57-7.33q-1.11-2-2.41-3.92a10.28,10.28,0,0,0-1.56-1.91,5.54,5.54,0,0,0-1.06-.77,2.13,2.13,0,0,0-.75-.26h-.24l-.2,0a1.47,1.47,0,0,0-.49.19,2,2,0,0,0-.82,1.4,3.77,3.77,0,0,0,0,1.42,19,19,0,0,0,.62,2.32,21.73,21.73,0,0,0,2,4.27,50.54,50.54,0,0,0,4.86,6.6l2.08,2.47c.6.74,1.12,1.39,1.56,1.92s.74,1,1,1.26l.35.44.06,0c-.26,1.58-.52,3.14-.76,4.7-.44,2.75-.81,5.48-1.14,8.11-.06.44-.1.86-.16,1.3a35.76,35.76,0,0,0-2.1-5,37.66,37.66,0,0,0-2.09-3.61,42.34,42.34,0,0,0-2.78-3.73,35.27,35.27,0,0,0-3.45-3.6c-.63-.57-1.27-1.15-2-1.67-.35-.27-.66-.53-1-.81a1.76,1.76,0,0,0-.84-.33,1.12,1.12,0,0,0-.31,0,1.07,1.07,0,0,0-.23.06,1.25,1.25,0,0,0-.48.31,2.4,2.4,0,0,0-.58,1.57c0,.5,0,.86,0,1.33a16.17,16.17,0,0,0,.37,2.63,18.3,18.3,0,0,0,1.83,4.76,24.2,24.2,0,0,0,2.7,3.92,29,29,0,0,0,3,3c1,.86,1.95,1.57,2.8,2.18s1.62,1.12,2.26,1.51c1.15.72,1.87,1.12,2,1.19l.43.31c-.09.77-.17,1.55-.25,2.3-.24,2.42-.42,4.73-.52,6.86,0,.78-.06,1.53-.06,2.27l-.07-.1c-1.06-1.35-2.58-3.27-4.5-5.49s-4.21-4.76-6.63-7.51a45,45,0,0,0-4-4.05,7,7,0,0,0-2.66-1.59,3.08,3.08,0,0,0-1.73,0,2.84,2.84,0,0,0-1.47,1c-1.38,2-.64,4.56.54,6.15a18.82,18.82,0,0,0,4.22,4c2.91,2.25,5.71,4.24,8.2,5.82,1.23.8,2.4,1.48,3.43,2.09s1.94,1.12,2.7,1.51c.95.51,1.65.87,2,1.06a38.58,38.58,0,0,0,.58,5.14c.24,1.24.48,2.19.67,2.84s.3,1,.3,1l.62-.17-.2-1c-.13-.64-.3-1.59-.44-2.8s-.26-2.69-.29-4.4v-.59l2.31-1.05c.86-.38,1.89-.88,3.06-1.47s2.52-1.23,3.94-2a83.31,83.31,0,0,0,9.42-5.87,28.4,28.4,0,0,0,4.83-4.13,13.16,13.16,0,0,0,1.91-2.76l.17-.37a3.35,3.35,0,0,0,.18-.46,4.68,4.68,0,0,0,.18-.92A2.63,2.63,0,0,0,304.49,296.66Z"/><path class="cls-3" d="M307.11,306.76v33.31A20.94,20.94,0,0,1,286.22,361H274.49a20.94,20.94,0,0,1-20.89-20.88V306.76Z"/><path class="cls-4" d="M273.15,330.21a5.13,5.13,0,0,1-3.91-1.83,9.54,9.54,0,0,1-1.51-3.19c-.15-.46-.3-.92-.48-1.36-.53-1.3-1.58-2.67-2.95-2.67h-.07c-.93,0-1.86.7-2.75,2l-.42.64a7.92,7.92,0,0,1-2.22,2.53,4.3,4.3,0,0,1-5.51-1,.47.47,0,1,1,.74-.58,3.38,3.38,0,0,0,4.27.75,7,7,0,0,0,1.93-2.25l.44-.66c1.07-1.56,2.24-2.36,3.5-2.4,1.85,0,3.25,1.64,3.9,3.25.19.46.35.94.51,1.41a8.37,8.37,0,0,0,1.35,2.89,4.05,4.05,0,0,0,7-1.21,8.92,8.92,0,0,0,.31-1.42,12.1,12.1,0,0,1,.26-1.28,6,6,0,0,1,11.05-1.13,11.58,11.58,0,0,1,.8,2.22,7.64,7.64,0,0,0,1.07,2.58,4.29,4.29,0,0,0,4.29,1.45,5.85,5.85,0,0,0,3.72-3c.22-.41.41-.85.61-1.31.6-1.4,1.23-2.85,2.69-3.46a3.9,3.9,0,0,1,3.77.65,7.24,7.24,0,0,1,2.15,3,.48.48,0,0,1-.25.62.47.47,0,0,1-.61-.25,6.33,6.33,0,0,0-1.86-2.67,3,3,0,0,0-2.84-.53c-1.11.47-1.64,1.68-2.19,3-.2.46-.41.94-.65,1.38a6.76,6.76,0,0,1-4.33,3.47,5.15,5.15,0,0,1-5.25-1.8,8.54,8.54,0,0,1-1.22-2.89,10.69,10.69,0,0,0-.73-2,5,5,0,0,0-9.32.95,10.71,10.71,0,0,0-.24,1.18,8.85,8.85,0,0,1-.35,1.57,5,5,0,0,1-3.85,3.27A4.47,4.47,0,0,1,273.15,330.21Z"/><path class="cls-4" d="M294.26,326.1a1.4,1.4,0,0,0,0-2.8,1.4,1.4,0,0,0,0,2.8Z"/><path class="cls-4" d="M272.58,325.08h.12a1,1,0,0,0,.54-.12,1.06,1.06,0,0,0,.46-.29,1.2,1.2,0,0,0,.29-.45,1.25,1.25,0,0,0,.12-.54l-.05-.37a1.43,1.43,0,0,0-.36-.62l-.29-.22a1.35,1.35,0,0,0-.71-.19h-.12a1.6,1.6,0,0,0-1,.41,1.06,1.06,0,0,0-.29.45,1.25,1.25,0,0,0-.12.54l.05.37a1.43,1.43,0,0,0,.36.62l.29.22a1.35,1.35,0,0,0,.71.19Z"/><path class="cls-4" d="M263.52,328a1.4,1.4,0,0,0,0-2.8,1.4,1.4,0,0,0,0,2.8Z"/><path class="cls-4" d="M282.52,328a1.4,1.4,0,0,0,0-2.8,1.4,1.4,0,0,0,0,2.8Z"/><path class="cls-4" d="M303.31,328.65h.13a1,1,0,0,0,.54-.12,1,1,0,0,0,.45-.29,1.09,1.09,0,0,0,.29-.45,1,1,0,0,0,.12-.54l0-.37a1.43,1.43,0,0,0-.36-.62l-.29-.22a1.32,1.32,0,0,0-.7-.19h-.13a1,1,0,0,0-.54.12,1.27,1.27,0,0,0-.74.74,1,1,0,0,0-.12.54l0,.37a1.26,1.26,0,0,0,.36.62l.28.22a1.38,1.38,0,0,0,.71.19Z"/><path class="cls-12" d="M386.18,48.11a11.19,11.19,0,0,1-20.22,0,11.19,11.19,0,0,1,20.22,0Zm-5.24-3.6a6.08,6.08,0,0,1,0,7.2,8.65,8.65,0,0,0,3.54-3.6,8.65,8.65,0,0,0-3.54-3.6Zm-9.73,0a8.68,8.68,0,0,0-3.55,3.6,8.68,8.68,0,0,0,3.55,3.6,6,6,0,0,1,0-7.2Zm4.86-.91a4.51,4.51,0,1,0,4.51,4.51A4.5,4.5,0,0,0,376.07,43.6Z"/><path class="cls-12" d="M376.07,51.29a3.18,3.18,0,1,0-3.18-3.18A3.19,3.19,0,0,0,376.07,51.29Z"/><path class="cls-13" d="M239.26,341.23c-6.61-6-9.63-15-11.19-23.73,7,5.8,10.85,14.68,11.19,23.73"/><path class="cls-13" d="M240.49,341.52c-4.43-7.72-4.53-17.2-3.3-26,4.82,7.66,5.78,17.31,3.3,26"/><path class="cls-13" d="M241.28,341.35c-1.7-8.74,1.28-17.74,5.3-25.68,2.08,8.81-.14,18.25-5.3,25.68"/><path class="cls-13" d="M242.14,341.26c1.16-8.83,6.83-16.42,13.17-22.68-.82,9-5.92,17.27-13.17,22.68"/><path class="cls-6" d="M230.49,321.71c1.29,2.74,2.65,5.45,4,8.14q1,2,2,4.07c.65,1.37,1.3,2.74,1.83,4.16l-.21.09c-.78-1.3-1.44-2.66-2.11-4s-1.28-2.74-1.91-4.12c-1.25-2.75-2.53-5.5-3.86-8.22Z"/><path class="cls-6" d="M238.1,320.57c.37,3.08.81,6.15,1.27,9.22.23,1.54.45,3.07.65,4.61s.37,3.08.43,4.64l-.22,0c-.33-1.52-.54-3.06-.74-4.6s-.37-3.08-.53-4.62c-.32-3.09-.66-6.18-1.08-9.25Z"/><path class="cls-6" d="M245.91,320.85c-.51,2.86-1,5.71-1.64,8.55q-.45,2.13-1,4.23a35.77,35.77,0,0,1-1.36,4.14l-.22-.07c.3-1.42.7-2.81,1.07-4.21l1.13-4.19a84.69,84.69,0,0,0,1.81-8.48Z"/><path class="cls-6" d="M252.83,323.43c-1.47,2.56-2.94,5.12-4.45,7.66-.75,1.28-1.52,2.53-2.33,3.77a39.48,39.48,0,0,1-2.59,3.6l-.19-.13c.73-1.29,1.54-2.52,2.34-3.76l2.43-3.69c1.62-2.47,3.17-5,4.6-7.56Z"/><path class="cls-7" d="M250.7,335.61v15.47c0,5.33-3.39,9.7-7.53,9.7h-4.23c-4.14,0-7.53-4.37-7.53-9.7V335.61Z"/><path class="cls-4" d="M248.45,339.17a.61.61,0,0,0,0-1.21.61.61,0,0,0,0,1.21Z"/><path class="cls-4" d="M245.31,343.79a.61.61,0,0,0,0-1.21.61.61,0,0,0,0,1.21Z"/><path class="cls-4" d="M241.43,340.46a.61.61,0,0,0,0-1.21.61.61,0,0,0,0,1.21Z"/><path class="cls-4" d="M237.18,343.79a.61.61,0,0,0,0-1.21.61.61,0,0,0,0,1.21Z"/><path class="cls-4" d="M234.6,339.54a.61.61,0,0,0,0-1.21.61.61,0,0,0,0,1.21Z"/><path class="cls-4" d="M235,349.14a.61.61,0,0,0,0-1.21.61.61,0,0,0,0,1.21Z"/><path class="cls-4" d="M241.62,348.4a.6.6,0,0,0,0-1.2.6.6,0,0,0,0,1.2Z"/><path class="cls-4" d="M248.08,348.59a.61.61,0,0,0,0-1.21.61.61,0,0,0,0,1.21Z"/><path class="cls-4" d="M247.15,354.19h.11a.61.61,0,0,0,0-1.21h-.11a.61.61,0,0,0,0,1.21h.11a.61.61,0,0,0,0-1.21h-.11a.61.61,0,0,0,0,1.21Z"/><path class="cls-4" d="M241,357.66a.6.6,0,0,0,0-1.2.6.6,0,0,0,0,1.2Z"/><path class="cls-4" d="M240.25,353.34a.61.61,0,0,0,0-1.21.61.61,0,0,0,0,1.21Z"/><path class="cls-4" d="M235,354.89a.61.61,0,0,0,0-1.21.61.61,0,0,0,0,1.21Z"/><circle class="cls-4" cx="216.27" cy="302.43" r="9.34"/><path class="cls-4" d="M319.42,283.29A.41.41,0,0,1,319,283a.4.4,0,0,1,.27-.5c.77-.23,1.52-.48,2.26-.73a.4.4,0,0,1,.51.24.4.4,0,0,1-.25.51c-.75.26-1.51.51-2.29.74A.23.23,0,0,1,319.42,283.29Z"/><path class="cls-4" d="M326.18,280.75a.41.41,0,0,1-.36-.23A.4.4,0,0,1,326,280c1.46-.67,2.89-1.42,4.26-2.21a.39.39,0,1,1,.4.68,47.75,47.75,0,0,1-4.32,2.25A.35.35,0,0,1,326.18,280.75Zm8.33-4.88a.4.4,0,0,1-.24-.73,43.2,43.2,0,0,0,3.7-3,.4.4,0,0,1,.57,0,.39.39,0,0,1,0,.56,44.88,44.88,0,0,1-3.77,3.09A.4.4,0,0,1,334.51,275.87Zm7.12-6.51a.37.37,0,0,1-.26-.1.4.4,0,0,1,0-.56,44.68,44.68,0,0,0,3-3.76.4.4,0,0,1,.55-.1.41.41,0,0,1,.1.56,46.59,46.59,0,0,1-3,3.82A.41.41,0,0,1,341.63,269.36Zm5.57-7.89a.37.37,0,0,1-.2-.05.39.39,0,0,1-.15-.54,42.55,42.55,0,0,0,2.07-4.31.4.4,0,0,1,.74.3,44.32,44.32,0,0,1-2.11,4.4A.41.41,0,0,1,347.2,261.47Zm5.67-6.25a13.14,13.14,0,0,1-2.72-.27.4.4,0,1,1,.17-.78,14.09,14.09,0,0,0,4.67.11.4.4,0,1,1,.1.79A17.25,17.25,0,0,1,352.87,255.22Zm6.88-1.23a.38.38,0,0,1-.38-.28.4.4,0,0,1,.26-.5,34.73,34.73,0,0,0,4.45-1.73.41.41,0,0,1,.53.19.4.4,0,0,1-.19.53,37,37,0,0,1-4.55,1.78ZM346,252.84a.4.4,0,0,1-.27-.11,10.15,10.15,0,0,1-2.71-4.17.39.39,0,0,1,.24-.51.4.4,0,0,1,.51.24,9.47,9.47,0,0,0,2.5,3.85.4.4,0,0,1-.27.7Zm4.9-.29-.1,0a.39.39,0,0,1-.28-.49,35.05,35.05,0,0,0,1-4.68.4.4,0,0,1,.45-.34.4.4,0,0,1,.34.45,36.23,36.23,0,0,1-1,4.78A.41.41,0,0,1,350.86,252.55Zm17.6-2.67a.38.38,0,0,1-.33-.18.39.39,0,0,1,.11-.55,35.23,35.23,0,0,0,3.8-2.89.4.4,0,1,1,.53.6,35.62,35.62,0,0,1-3.89,3A.46.46,0,0,1,368.46,249.88Zm-25.95-5.8a.39.39,0,0,1-.4-.39c0-.16,0-.33,0-.49a19.69,19.69,0,0,1,.51-4.41.4.4,0,0,1,.78.19,18.58,18.58,0,0,0-.49,4.22c0,.16,0,.31,0,.47a.4.4,0,0,1-.39.41Zm33.22-.53a.39.39,0,0,1-.3-.66,42.29,42.29,0,0,0,2.95-3.77.4.4,0,0,1,.65.45,40.81,40.81,0,0,1-3,3.85A.39.39,0,0,1,375.73,243.55ZM352.08,243a.4.4,0,0,1-.4-.38,18.33,18.33,0,0,0-.75-4.67.4.4,0,0,1,.77-.23,19.4,19.4,0,0,1,.77,4.86.4.4,0,0,1-.38.42Zm29.14-7.38a.39.39,0,0,1-.36-.58,44.18,44.18,0,0,0,2-4.35.4.4,0,0,1,.52-.22.41.41,0,0,1,.22.52,45.59,45.59,0,0,1-2.06,4.42A.38.38,0,0,1,381.22,235.61Zm-36.33-.75a.42.42,0,0,1-.24-.07.41.41,0,0,1-.08-.56c1.4-1.88,3.17-2.22,4.67-.87a.4.4,0,0,1,0,.56.39.39,0,0,1-.56,0,2.16,2.16,0,0,0-1.4-.62,2.94,2.94,0,0,0-2.1,1.37A.39.39,0,0,1,344.89,234.86Zm39.93-8.2-.1,0a.39.39,0,0,1-.28-.49,38.66,38.66,0,0,0,1-4.68.39.39,0,0,1,.45-.33.4.4,0,0,1,.34.45,41.78,41.78,0,0,1-1,4.77A.41.41,0,0,1,384.82,226.66Z"/><path class="cls-4" d="M386.16,217a.4.4,0,0,1-.4-.38,10.78,10.78,0,0,0-.32-2.28.4.4,0,0,1,.77-.21,11.1,11.1,0,0,1,.35,2.46.39.39,0,0,1-.38.41Z"/><path class="cls-4" d="M74.32,207.34a.39.39,0,0,1-.26-.1c-.44-.38-.85-.77-1.25-1.14a.4.4,0,1,1,.55-.58c.39.37.8.74,1.23,1.12a.4.4,0,0,1,0,.56A.37.37,0,0,1,74.32,207.34Zm-4.45-4.68a.4.4,0,0,1-.31-.16A21,21,0,0,1,67,198.33a.4.4,0,0,1,.73-.32,20.87,20.87,0,0,0,2.42,4,.4.4,0,0,1-.07.56A.46.46,0,0,1,69.87,202.66ZM66.18,194a.41.41,0,0,1-.4-.37c0-.38,0-.75,0-1.12a13,13,0,0,1,.56-3.76.39.39,0,0,1,.5-.26.38.38,0,0,1,.26.49,12.13,12.13,0,0,0-.53,3.53c0,.34,0,.7,0,1.05a.4.4,0,0,1-.36.44Zm5.89-7.34a5.62,5.62,0,0,1-3.29-1.18.41.41,0,0,1-.12-.5l0,0a.4.4,0,0,1-.08-.56A16.45,16.45,0,0,1,72,180.9a.4.4,0,1,1,.47.65,15.74,15.74,0,0,0-3.25,3.22l0,0a4.83,4.83,0,0,0,2.82,1h0a3.74,3.74,0,0,0,1.31-.24.39.39,0,0,1,.51.24.4.4,0,0,1-.23.51,4.65,4.65,0,0,1-1.59.29ZM77,183.19a.34.34,0,0,1-.22-.07.39.39,0,0,1-.12-.55,4.51,4.51,0,0,0,1-2.24c0-.2,0-.67-.86-.67h-.19a.4.4,0,0,1,0-.79c1.19-.1,1.89.46,1.89,1.45A5.32,5.32,0,0,1,77.33,183,.4.4,0,0,1,77,183.19Zm-11.1-1.26a.42.42,0,0,1-.34-.19,24.72,24.72,0,0,1-2.05-4.41.4.4,0,0,1,.24-.51.41.41,0,0,1,.51.24,23.07,23.07,0,0,0,2,4.26.4.4,0,0,1-.14.55A.39.39,0,0,1,65.9,181.93ZM62.61,173a.39.39,0,0,1-.39-.32,40.12,40.12,0,0,1-.7-4.78.4.4,0,0,1,.36-.44.42.42,0,0,1,.43.37,43,43,0,0,0,.69,4.69.41.41,0,0,1-.31.47Zm-.88-9.52h0a.4.4,0,0,1-.39-.41c0-1.58.11-3.2.29-4.81a.41.41,0,0,1,.44-.36.4.4,0,0,1,.35.44c-.17,1.59-.26,3.18-.28,4.74A.4.4,0,0,1,61.73,163.47Zm1-9.51h-.08a.39.39,0,0,1-.31-.47c.31-1.56.7-3.14,1.15-4.68a.41.41,0,0,1,.5-.27.4.4,0,0,1,.27.5c-.45,1.51-.83,3.06-1.14,4.61A.4.4,0,0,1,62.74,154Zm2.7-9.18a.39.39,0,0,1-.15,0,.4.4,0,0,1-.22-.52c.58-1.48,1.23-3,1.94-4.41a.4.4,0,0,1,.54-.18.41.41,0,0,1,.18.53c-.7,1.42-1.35,2.89-1.92,4.35A.39.39,0,0,1,65.44,144.78Zm4.22-8.58a.35.35,0,0,1-.2,0,.4.4,0,0,1-.14-.55c.81-1.36,1.7-2.71,2.64-4a.4.4,0,0,1,.56-.09.39.39,0,0,1,.09.55c-.93,1.3-1.8,2.64-2.61,4A.39.39,0,0,1,69.66,136.2Z"/><path class="cls-4" d="M138.4,98.85a7.33,7.33,0,1,1,7.32-7.33A7.34,7.34,0,0,1,138.4,98.85Zm0-13.85a6.53,6.53,0,1,0,6.53,6.52A6.54,6.54,0,0,0,138.4,85Z"/><path class="cls-4" d="M69.87,233.18a5.32,5.32,0,1,1,5.32-5.31A5.32,5.32,0,0,1,69.87,233.18Zm0-9.83a4.52,4.52,0,1,0,4.52,4.52A4.52,4.52,0,0,0,69.87,223.35Z"/><path class="cls-4" d="M315.24,302.94a2.86,2.86,0,1,1,2.85-2.86A2.87,2.87,0,0,1,315.24,302.94Zm0-4.92a2.06,2.06,0,1,0,2.06,2.06A2.06,2.06,0,0,0,315.24,298Z"/><path class="cls-4" d="M315.24,274.66a6.27,6.27,0,1,1,6.27-6.26A6.27,6.27,0,0,1,315.24,274.66Zm0-11.74a5.48,5.48,0,1,0,5.47,5.48A5.48,5.48,0,0,0,315.24,262.92Z"/><path class="cls-4" d="M261.06,251.2a8.73,8.73,0,1,1,8.73-8.73A8.74,8.74,0,0,1,261.06,251.2Zm0-16.66a7.93,7.93,0,1,0,7.93,7.93A7.94,7.94,0,0,0,261.06,234.54Z"/><path class="cls-4" d="M404.72,144.57a11.47,11.47,0,1,1,11.47-11.47A11.48,11.48,0,0,1,404.72,144.57Zm0-22.14a10.68,10.68,0,1,0,10.67,10.67A10.68,10.68,0,0,0,404.72,122.43Z"/><path class="cls-4" d="M392,119a5.94,5.94,0,1,1,5.94-5.93A5.94,5.94,0,0,1,392,119ZM392,108a5.14,5.14,0,1,0,5.14,5.14A5.14,5.14,0,0,0,392,108Z"/><path class="cls-4" d="M382.71,135a3.17,3.17,0,1,1,3.17-3.17A3.17,3.17,0,0,1,382.71,135Zm0-5.54a2.37,2.37,0,1,0,2.37,2.37A2.38,2.38,0,0,0,382.71,129.43Z"/></g></svg>